<svg xmlns="http://www.w3.org/2000/svg" width="30.073" height="28.806" viewBox="0 0 30.073 28.806">
  <path id="Path_238" data-name="Path 238" d="M11.869,3a5.068,5.068,0,0,0,0,10.136h0A5.068,5.068,0,1,0,11.869,3m0,7.6A2.534,2.534,0,1,1,14.4,8.068,2.534,2.534,0,0,1,11.869,10.6m11.4-6.335a1.267,1.267,0,0,0-1.267,1.267V6.8H20.738a1.267,1.267,0,0,0,0,2.534h1.267V10.6a1.267,1.267,0,0,0,2.534,0V9.335h1.267a1.267,1.267,0,0,0,0-2.534H24.539V5.534a1.267,1.267,0,0,0-1.267-1.267m-11.4,11.4A8.869,8.869,0,0,0,3,24.539a1.267,1.267,0,1,0,2.534,0,6.335,6.335,0,0,1,12.67,0,1.267,1.267,0,1,0,2.534,0,8.869,8.869,0,0,0-8.869-8.869m0-15.67a8.075,8.075,0,0,1,7.077,4.2q.157-.073.321-.133a4.267,4.267,0,0,1,8.011,0,4.267,4.267,0,0,1,0,8.011,4.267,4.267,0,0,1-8.011,0q-.164-.06-.321-.133A8.119,8.119,0,0,1,17.335,14a11.9,11.9,0,0,1,6.4,10.542,4.267,4.267,0,1,1-8.534,0,3.335,3.335,0,0,0-6.67,0,4.267,4.267,0,1,1-8.534,0A11.9,11.9,0,0,1,6.4,14,8.065,8.065,0,0,1,11.869,0Z" transform="translate(0 0)" fill="#faae1d"/>
</svg>
