<svg xmlns="http://www.w3.org/2000/svg" xmlns:xlink="http://www.w3.org/1999/xlink" width="35.47" height="35.473" viewBox="0 0 35.47 35.473">
  <defs>
    <linearGradient id="linear-gradient" x1="0.069" y1="0.098" x2="0.931" y2="0.961" gradientUnits="objectBoundingBox">
      <stop offset="0" stop-color="#ffd317"/>
      <stop offset="1" stop-color="#f44e4e"/>
    </linearGradient>
  </defs>
  <path id="Path_442" data-name="Path 442" d="M-10590.656-13487.527a1.66,1.66,0,0,1-1.66-1.66v-17.59a1.663,1.663,0,0,1,1.66-1.66h2.471a1.662,1.662,0,0,1,1.656,1.66v17.59a1.66,1.66,0,0,1-1.656,1.66Zm.417-2.077h1.633v-16.756h-1.633Zm-7.84,2.077a1.662,1.662,0,0,1-1.659-1.66v-11.325a1.661,1.661,0,0,1,1.659-1.659h2.471a1.66,1.66,0,0,1,1.66,1.659v11.325a1.66,1.66,0,0,1-1.66,1.66Zm.418-2.077h1.636v-10.49h-1.636Zm-7.837,2.077a1.66,1.66,0,0,1-1.659-1.66v-13.619a1.66,1.66,0,0,1,1.659-1.659h2.468a1.66,1.66,0,0,1,1.659,1.659v13.619a1.66,1.66,0,0,1-1.659,1.66Zm.418-2.077h1.632v-12.785h-1.632Zm-7.84,2.077a1.66,1.66,0,0,1-1.66-1.66v-9.51a1.659,1.659,0,0,1,1.66-1.655h2.471a1.661,1.661,0,0,1,1.659,1.655v9.51a1.662,1.662,0,0,1-1.659,1.66Zm.417-2.077h1.636v-8.672h-1.636Zm-7.84,2.077a1.66,1.66,0,0,1-1.656-1.66v-13.619a1.66,1.66,0,0,1,1.656-1.659h2.471a1.66,1.66,0,0,1,1.66,1.659v13.619a1.66,1.66,0,0,1-1.66,1.66Zm.421-2.077h1.633v-12.785h-1.633Zm7.619-12.391-7.419-5.447a1.036,1.036,0,0,1-.41-.679,1.021,1.021,0,0,1,.189-.774,1.04,1.04,0,0,1,.835-.424,1.019,1.019,0,0,1,.614.2l6.809,5,6.8-5a1.054,1.054,0,0,1,.614-.2,1.042,1.042,0,0,1,.421.088l6.7,2.98,5.274-6.384-.536.061a.87.87,0,0,1-.133.011,1.032,1.032,0,0,1-1.021-.924,1.016,1.016,0,0,1,.218-.764,1.017,1.017,0,0,1,.692-.387l3.146-.363a.671.671,0,0,1,.078,0,1.052,1.052,0,0,1,1.042,1.038v3.122a1.038,1.038,0,0,1-1.038,1.039,1.039,1.039,0,0,1-1.039-1.039v-.233l-5.583,6.757a1.037,1.037,0,0,1-.8.377,1.067,1.067,0,0,1-.421-.089l-6.872-3.054-6.934,5.091a1.024,1.024,0,0,1-.614.2A1.039,1.039,0,0,1-10612.3-13502Zm-5.678-14.017A6.993,6.993,0,0,1-10611-13523a7,7,0,0,1,7,6.988,7,7,0,0,1-7,6.984A6.994,6.994,0,0,1-10617.98-13516.012Zm2.077,0a4.914,4.914,0,0,0,4.907,4.907,4.919,4.919,0,0,0,4.918-4.907,4.919,4.919,0,0,0-4.918-4.911A4.915,4.915,0,0,0-10615.9-13516.012Zm3.9,3.387h-.258a1.038,1.038,0,0,1-1.039-1.038,1.039,1.039,0,0,1,1.039-1.039h1.374a.136.136,0,0,0,.136-.136.139.139,0,0,0-.136-.139h-.2a2.213,2.213,0,0,1-2.213-2.213,2.2,2.2,0,0,1,1.276-2,1.038,1.038,0,0,1,1.038-1.038,1.036,1.036,0,0,1,1.015.821h.258a1.038,1.038,0,0,1,1.039,1.038,1.039,1.039,0,0,1-1.039,1.039h-1.374a.136.136,0,0,0-.136.136.134.134,0,0,0,.136.136h.2a2.218,2.218,0,0,1,2.213,2.216,2.215,2.215,0,0,1-1.272,2,1.038,1.038,0,0,1-1.039,1.038A1.043,1.043,0,0,1-10612.007-13512.625Z" transform="translate(10621.999 13523)" fill="url(#linear-gradient)"/>
</svg>
