<svg xmlns="http://www.w3.org/2000/svg" xmlns:xlink="http://www.w3.org/1999/xlink" width="48.842" height="47.174" viewBox="0 0 48.842 47.174">
  <defs>
    <linearGradient id="linear-gradient" x1="0.069" y1="0.098" x2="0.931" y2="0.961" gradientUnits="objectBoundingBox">
      <stop offset="0" stop-color="white"/>
      <stop offset="1" stop-color="white"/>
    </linearGradient>
  </defs>
  <path id="Path_454" data-name="Path 454" d="M-10345.879-13637.26v-1.142h-3.1a9.048,9.048,0,0,1-9.025-9.049v-.924h5.234v.924a3.8,3.8,0,0,0,3.791,3.8h3.1v-1.14a1.429,1.429,0,0,1,.434-1.031,1.415,1.415,0,0,1,.99-.4,1.424,1.424,0,0,1,.725.2l6.492,3.76a1.434,1.434,0,0,1,.711,1.237,1.43,1.43,0,0,1-.717,1.242l-6.488,3.76a1.429,1.429,0,0,1-.723.2A1.432,1.432,0,0,1-10345.879-13637.26Zm-3.1-2.988h4.941v2.267l5.25-3.044-5.25-3.041v2.269h-4.941a5.652,5.652,0,0,1-5.559-4.729h-1.564A7.2,7.2,0,0,0-10348.977-13640.248Zm3.117-8.414a3.951,3.951,0,0,1-3.984-3.908v-14.294a3.953,3.953,0,0,1,3.984-3.91h24.656a3.953,3.953,0,0,1,3.984,3.91v14.294a3.951,3.951,0,0,1-3.984,3.908Zm-1.791-18.2v14.294a1.773,1.773,0,0,0,1.791,1.749h24.656a1.775,1.775,0,0,0,1.795-1.749v-14.294a1.774,1.774,0,0,0-1.795-1.748h-24.656A1.772,1.772,0,0,0-10347.65-13666.864Zm5.453,13.881a1.088,1.088,0,0,1-1.1-1.081,1.055,1.055,0,0,0-1.07-1.038,1.09,1.09,0,0,1-1.1-1.078v-7.07a1.092,1.092,0,0,1,1.1-1.083,1.056,1.056,0,0,0,1.07-1.041,1.088,1.088,0,0,1,1.1-1.078h17.332a1.09,1.09,0,0,1,1.1,1.078,1.056,1.056,0,0,0,1.072,1.041,1.089,1.089,0,0,1,1.092,1.083v7.07a1.087,1.087,0,0,1-1.092,1.078,1.056,1.056,0,0,0-1.072,1.038,1.09,1.09,0,0,1-1.1,1.081Zm-1.072-9.374v5.283a3.224,3.224,0,0,1,1.975,1.936h15.529a3.228,3.228,0,0,1,1.973-1.936v-5.283a3.244,3.244,0,0,1-1.973-1.932h-15.529A3.252,3.252,0,0,1-10343.27-13662.357Zm5.754,2.639a3.953,3.953,0,0,1,3.984-3.907,3.951,3.951,0,0,1,3.984,3.907,3.948,3.948,0,0,1-3.984,3.908A3.951,3.951,0,0,1-10337.516-13659.719Zm2.191,0a1.773,1.773,0,0,0,1.793,1.747,1.772,1.772,0,0,0,1.795-1.747,1.772,1.772,0,0,0-1.795-1.746A1.773,1.773,0,0,0-10335.324-13659.719Zm6.477,0a1.8,1.8,0,0,1,1.816-1.786,1.8,1.8,0,0,1,1.816,1.786,1.8,1.8,0,0,1-1.816,1.787A1.8,1.8,0,0,1-10328.848-13659.719Zm-13,0a1.8,1.8,0,0,1,1.816-1.786,1.8,1.8,0,0,1,1.818,1.786,1.8,1.8,0,0,1-1.818,1.787A1.8,1.8,0,0,1-10341.848-13659.719Zm27.453-10.734v-.924a3.8,3.8,0,0,0-3.791-3.806h-3.1v1.139a1.432,1.432,0,0,1-1.426,1.437,1.447,1.447,0,0,1-.721-.2l-6.492-3.763a1.425,1.425,0,0,1-.709-1.237,1.434,1.434,0,0,1,.713-1.242l6.492-3.76a1.43,1.43,0,0,1,.717-.194,1.431,1.431,0,0,1,1.426,1.436v1.139h3.1a9.046,9.046,0,0,1,9.025,9.049v.924Zm-3.791-6.574a5.648,5.648,0,0,1,5.561,4.726h1.564a7.2,7.2,0,0,0-7.125-6.279h-4.937v-2.267l-5.256,3.044,5.256,3.043v-2.267Z" transform="translate(10358.002 13683)" fill="url(#linear-gradient)"/>
</svg>
