<svg xmlns="http://www.w3.org/2000/svg" width="30.811" height="37.439" viewBox="0 0 30.811 37.439">
  <path id="Path_418" data-name="Path 418" d="M-9682.171-13082.295l-16.849-.293a1.153,1.153,0,0,1-1.13-1.169l.023-1.3a9.559,9.559,0,0,1,4.376-7.866,14.97,14.97,0,0,1-6.279-6.631,3.2,3.2,0,0,1-.586.046,3.094,3.094,0,0,1-3.036-3.145,3.114,3.114,0,0,1,2.042-2.852c-.021-.3-.036-.648-.03-1a13.479,13.479,0,0,1,13.678-13.227l.017,0a13.478,13.478,0,0,1,13.227,13.694c-.007.355-.036.7-.069,1a3.11,3.11,0,0,1,1.946,2.918,3.1,3.1,0,0,1-3.147,3.039,2.99,2.99,0,0,1-.586-.069,14.985,14.985,0,0,1-6.5,6.411,9.555,9.555,0,0,1,4.1,8.014l-.022,1.294a1.151,1.151,0,0,1-1.146,1.13Zm-14.465-6.589a7.238,7.238,0,0,0-1.192,3.872l0,.148,14.55.254,0-.148a7.283,7.283,0,0,0-1.058-3.912,7.3,7.3,0,0,0-2.452-2.442,4.255,4.255,0,0,1-3.694,2.189,4.252,4.252,0,0,1-3.619-2.315A7.312,7.312,0,0,0-9696.636-13088.884Zm6.193-2.334a1.691,1.691,0,0,0,1.008-.326,10.692,10.692,0,0,1-2-.033A1.687,1.687,0,0,0-9690.442-13091.218Zm-6.806-17.626a10.282,10.282,0,0,0-3.929,4.518,13.728,13.728,0,0,0,3.672,7.23,10.306,10.306,0,0,0,7.108,3.286,10.261,10.261,0,0,0,7.066-2.9,13.583,13.583,0,0,0,3.905-6.52,5.17,5.17,0,0,1-2.357-1.35,5.537,5.537,0,0,1-1.331-2.671c-.089-.382-.154-.744-.217-1.1a10.6,10.6,0,0,0-.228-1.09,1.693,1.693,0,0,0-.233-.524,8.214,8.214,0,0,1-4.28,1.074c-.06,0-.119,0-.178,0a25.824,25.824,0,0,1-2.957-.332c-.662-.1-1.284-.194-1.9-.251-.352-.032-.671-.053-.971-.056l-.177,0A6.18,6.18,0,0,0-9697.248-13108.844Zm19.687,7.382a.787.787,0,0,0,.422-.691.771.771,0,0,0-.093-.385C-9677.328-13102.176-9677.437-13101.817-9677.562-13101.462Zm-25.795-1.148a.783.783,0,0,0,.4.7c-.108-.358-.207-.721-.29-1.086A.81.81,0,0,0-9703.356-13102.61Zm19.766-9.878a1.155,1.155,0,0,1,.514.128,3.557,3.557,0,0,1,1.726,2.288,14.048,14.048,0,0,1,.307,1.433c.053.307.105.6.168.876a3.264,3.264,0,0,0,.747,1.6,2.755,2.755,0,0,0,1.077.6c.02-.175.032-.343.036-.507a11.091,11.091,0,0,0-3.128-7.955,11.108,11.108,0,0,0-7.791-3.405h-.049a11.1,11.1,0,0,0-7.942,3.118,11.1,11.1,0,0,0-3.227,5.983,9.372,9.372,0,0,1,2.828-2.539,8.7,8.7,0,0,1,4.317-.951c.352.006.718.029,1.116.065.728.066,1.441.175,2.13.28a24.049,24.049,0,0,0,2.6.3c.069,0,.139,0,.211.007a5.492,5.492,0,0,0,3.655-1.083,1.125,1.125,0,0,1,.68-.231Zm-6.733,14.494a4.353,4.353,0,0,1-2.726-.948,3.415,3.415,0,0,1-.856-1.041l0-.007a1.138,1.138,0,0,1-.047-.875,1.138,1.138,0,0,1,.587-.655,1.168,1.168,0,0,1,.517-.112h.013a1.147,1.147,0,0,1,1,.652,1.233,1.233,0,0,0,.254.27,2.011,2.011,0,0,0,1.3.422,2.034,2.034,0,0,0,1.313-.376,1.114,1.114,0,0,0,.264-.263,1.14,1.14,0,0,1,1.037-.613,1.154,1.154,0,0,1,.511.129,1.145,1.145,0,0,1,.566.675,1.158,1.158,0,0,1-.079.876l0,0a3.365,3.365,0,0,1-.893,1.011,4.321,4.321,0,0,1-2.67.854Zm4.6-3.81a2.447,2.447,0,0,1-2.4-2.486,2.448,2.448,0,0,1,2.486-2.4,2.447,2.447,0,0,1,2.4,2.489,2.448,2.448,0,0,1-2.444,2.4Zm-.105-2.446a.14.14,0,0,0,.145.151.141.141,0,0,0,.152-.146.139.139,0,0,0-.146-.151h-.007A.138.138,0,0,0-9685.826-13104.25Zm-8.966,2.288a2.448,2.448,0,0,1-2.4-2.486,2.446,2.446,0,0,1,2.485-2.4,2.449,2.449,0,0,1,2.4,2.489,2.448,2.448,0,0,1-2.443,2.4Zm-.105-2.446a.14.14,0,0,0,.146.151.143.143,0,0,0,.151-.146.14.14,0,0,0-.148-.151h-.007A.136.136,0,0,0-9694.9-13104.408Z" transform="translate(9705.651 13119.734)" fill="#faae1d"/>
</svg>
