<?xml version="1.0" encoding="iso-8859-1"?>
<!-- Generator: Adobe Illustrator 19.0.0, SVG Export Plug-In . SVG Version: 6.00 Build 0)  -->
<svg version="1.1" id="Layer_1" xmlns="http://www.w3.org/2000/svg" xmlns:xlink="http://www.w3.org/1999/xlink" x="0px" y="0px"
	 viewBox="0 0 512.012 512.012" style="enable-background:new 0 0 512.012 512.012;" xml:space="preserve">
<g>
	<g>
		<g>
			<path d="M213.339,298.672c11.782,0,21.333-9.551,21.333-21.333c0-35.355-28.645-64-64-64s-64,28.645-64,64
				c0,11.782,9.551,21.333,21.333,21.333c11.782,0,21.333-9.551,21.333-21.333c0-11.791,9.542-21.333,21.333-21.333
				s21.333,9.542,21.333,21.333C192.006,289.121,201.557,298.672,213.339,298.672z"/>
			<path d="M341.339,213.339c-35.355,0-64,28.645-64,64c0,11.782,9.551,21.333,21.333,21.333c11.782,0,21.333-9.551,21.333-21.333
				c0-11.791,9.542-21.333,21.333-21.333s21.333,9.542,21.333,21.333c0,11.782,9.551,21.333,21.333,21.333
				s21.333-9.551,21.333-21.333C405.339,241.983,376.695,213.339,341.339,213.339z"/>
			<path d="M298.673,341.339c-11.782,0-21.333,9.551-21.333,21.333c0,11.791-9.542,21.333-21.333,21.333
				s-21.333-9.542-21.333-21.333c0-11.782-9.551-21.333-21.333-21.333c-11.782,0-21.333,9.551-21.333,21.333
				c0,35.355,28.645,64,64,64s64-28.645,64-64C320.006,350.89,310.455,341.339,298.673,341.339z"/>
			<path d="M426.626,170.673c11.569,0.049,21.38-9.334,21.38-21.335v-128c0-13.183-11.837-23.21-24.841-21.043L302.732,20.368
				C291.037,7.856,274.413,0.005,256.006,0.005s-35.031,7.851-46.726,20.363L88.846,0.296c-13.003-2.167-24.841,7.86-24.841,21.043
				v128c0,12.043,9.881,21.448,21.503,21.332c-27.29,36.177-42.837,80.755-42.837,128.008c0,117.816,95.51,213.333,213.333,213.333
				s213.333-95.518,213.333-213.333C469.339,251.458,453.842,206.874,426.626,170.673z M320.006,60.744l85.333-14.222v77.634
				l-39.988-6.665c-0.009-0.002-0.018-0.004-0.027-0.005l-6.455-1.075l-38.863-6.477V64.005V60.744z M256.006,42.672
				c11.685,0,21.333,9.649,21.333,21.333v64c0,11.685-9.649,21.333-21.333,21.333s-21.333-9.649-21.333-21.333v-64
				C234.673,52.321,244.321,42.672,256.006,42.672z M106.673,46.522l85.333,14.222v3.261v45.928l-85.333,14.222V46.522z
				 M256.006,469.345c-94.258,0-170.667-76.414-170.667-170.667c0-56.549,27.796-108.278,73.371-139.934l38.132-6.355
				c0.049,0.118,0.103,0.233,0.153,0.351c0.065,0.154,0.134,0.305,0.2,0.458c0.318,0.738,0.649,1.468,0.994,2.192
				c0.094,0.196,0.187,0.393,0.283,0.588c0.387,0.792,0.787,1.576,1.206,2.349c0.032,0.06,0.063,0.121,0.095,0.18
				c0.472,0.866,0.964,1.718,1.475,2.559c0.06,0.099,0.124,0.197,0.185,0.296c0.443,0.721,0.9,1.432,1.37,2.133
				c0.107,0.159,0.214,0.319,0.322,0.477c0.5,0.732,1.013,1.455,1.542,2.165c0.038,0.051,0.074,0.103,0.112,0.153
				c0.597,0.796,1.212,1.578,1.844,2.345c0.042,0.051,0.086,0.1,0.128,0.151c0.569,0.686,1.153,1.357,1.75,2.019
				c0.115,0.128,0.231,0.255,0.347,0.381c0.603,0.658,1.218,1.306,1.848,1.938c0.043,0.043,0.085,0.088,0.128,0.131
				c0.712,0.711,1.44,1.406,2.184,2.083c0.009,0.008,0.018,0.016,0.027,0.024c0.698,0.634,1.413,1.25,2.138,1.853
				c0.118,0.098,0.236,0.195,0.355,0.292c0.695,0.57,1.401,1.127,2.12,1.667c0.052,0.039,0.102,0.079,0.154,0.118
				c1.58,1.181,3.218,2.288,4.905,3.322c0.118,0.072,0.236,0.143,0.355,0.215c0.775,0.468,1.559,0.921,2.354,1.356
				c0.063,0.034,0.124,0.07,0.187,0.104c1.747,0.949,3.544,1.817,5.384,2.603c0.117,0.05,0.235,0.099,0.353,0.148
				c0.841,0.353,1.69,0.69,2.548,1.008c0.076,0.028,0.152,0.058,0.228,0.086c1.889,0.691,3.82,1.294,5.786,1.807
				c0.117,0.03,0.234,0.059,0.352,0.089c0.894,0.228,1.795,0.437,2.703,0.627c0.092,0.019,0.184,0.04,0.276,0.059
				c2.004,0.409,4.042,0.722,6.109,0.938c0.118,0.012,0.237,0.023,0.355,0.034c0.932,0.092,1.869,0.164,2.812,0.215
				c0.112,0.006,0.224,0.014,0.337,0.019c1.048,0.051,2.1,0.087,3.161,0.087c1.06,0,2.113-0.035,3.161-0.087
				c0.113-0.006,0.226-0.013,0.339-0.02c0.942-0.051,1.878-0.123,2.808-0.215c0.12-0.012,0.24-0.022,0.359-0.035
				c2.066-0.216,4.104-0.529,6.108-0.938c0.092-0.019,0.184-0.04,0.276-0.059c0.908-0.19,1.809-0.399,2.703-0.627
				c0.117-0.03,0.235-0.059,0.352-0.089c1.967-0.513,3.897-1.116,5.786-1.807c0.077-0.028,0.152-0.058,0.229-0.086
				c0.858-0.318,1.707-0.654,2.548-1.008c0.118-0.05,0.237-0.099,0.354-0.149c1.84-0.786,3.636-1.654,5.384-2.603
				c0.063-0.034,0.124-0.07,0.186-0.104c0.795-0.435,1.579-0.888,2.354-1.356c0.119-0.072,0.238-0.143,0.357-0.216
				c1.687-1.034,3.325-2.141,4.905-3.322c0.05-0.038,0.1-0.077,0.15-0.115c0.72-0.542,1.427-1.099,2.124-1.67
				c0.118-0.097,0.236-0.193,0.353-0.291c0.725-0.603,1.439-1.218,2.137-1.852c0.01-0.009,0.02-0.017,0.029-0.026
				c0.744-0.677,1.472-1.372,2.184-2.083c0.043-0.043,0.085-0.088,0.128-0.131c0.63-0.633,1.246-1.28,1.849-1.939
				c0.116-0.126,0.231-0.253,0.346-0.381c0.596-0.661,1.181-1.333,1.749-2.018c0.042-0.051,0.086-0.101,0.129-0.152
				c0.632-0.767,1.247-1.548,1.844-2.344c0.038-0.05,0.074-0.102,0.111-0.153c0.529-0.71,1.042-1.433,1.542-2.166
				c0.109-0.159,0.216-0.318,0.323-0.478c0.469-0.7,0.925-1.409,1.367-2.129c0.062-0.101,0.126-0.2,0.188-0.301
				c0.51-0.841,1.002-1.693,1.474-2.558c0.033-0.06,0.063-0.121,0.095-0.181c0.418-0.773,0.818-1.556,1.205-2.347
				c0.096-0.196,0.19-0.393,0.284-0.591c0.344-0.722,0.675-1.452,0.992-2.188c0.066-0.154,0.136-0.307,0.201-0.461
				c0.05-0.118,0.104-0.233,0.153-0.352l36.97,6.157l1.555,0.259c45.337,31.712,72.978,83.424,72.978,139.875
				C426.673,392.931,350.264,469.345,256.006,469.345z"/>
		</g>
	</g>
</g>
<g>
</g>
<g>
</g>
<g>
</g>
<g>
</g>
<g>
</g>
<g>
</g>
<g>
</g>
<g>
</g>
<g>
</g>
<g>
</g>
<g>
</g>
<g>
</g>
<g>
</g>
<g>
</g>
<g>
</g>
</svg>
