<svg xmlns="http://www.w3.org/2000/svg" width="28.456" height="36.813" viewBox="0 0 28.456 36.813">
  <g id="girl_1_" data-name="girl (1)" transform="translate(-8.497 -1.497)">
    <path id="Path_421" data-name="Path 421"
      d="M-9866.786-14205.782a1.124,1.124,0,0,1-.8-.343,1.119,1.119,0,0,1-.3-.815v-.007l.257-3.943a8.2,8.2,0,0,1,1.927-4.868,8.382,8.382,0,0,1,1.63-1.494,2.822,2.822,0,0,1-.493-.207,4.162,4.162,0,0,1-1.622.336h-.008a4.084,4.084,0,0,1-4.082-4.078,4.05,4.05,0,0,1,.786-2.392,3.942,3.942,0,0,1-.189-1.19,4.075,4.075,0,0,1,1.795-3.367v-2.6a11.754,11.754,0,0,1,3.467-8.371,11.76,11.76,0,0,1,8.375-3.472,11.756,11.756,0,0,1,8.368,3.472,11.758,11.758,0,0,1,3.471,8.371v2.6a4.089,4.089,0,0,1,1.791,3.367,4.038,4.038,0,0,1-.187,1.193,4.037,4.037,0,0,1,.779,2.392,4.082,4.082,0,0,1-4.082,4.078h0a4.128,4.128,0,0,1-1.62-.336,3.024,3.024,0,0,1-.5.207,8.235,8.235,0,0,1,1.638,1.5,8.2,8.2,0,0,1,1.927,4.875l.261,3.939a1.166,1.166,0,0,1-.3.815,1.105,1.105,0,0,1-.793.339l-.008,0Zm18.262-2.194h2.052l-.129-1.984h-2.209Zm-16.668-4.176h3.178a1.121,1.121,0,0,1,.825.365l.011.011a1.1,1.1,0,0,1,.251.875l-.422,2.925h10.608l-.422-2.928a1.093,1.093,0,0,1,.251-.872l.011-.011a1.119,1.119,0,0,1,.818-.365h3.188a6.185,6.185,0,0,0-2.6-3.435,7.1,7.1,0,0,1-4.271,4.054l-.015,0a1.056,1.056,0,0,1-.336.054h-.007a1.087,1.087,0,0,1-.973-.6l-.74-1.466c-.139.007-.282.007-.421,0l-.74,1.466a1.084,1.084,0,0,1-.976.6h-.008a1.033,1.033,0,0,1-.332-.054l-.015,0a7.1,7.1,0,0,1-4.271-4.054A6.143,6.143,0,0,0-9865.192-14212.152Zm-.426,4.176h2.052l.29-1.984h-2.213Zm11.925-6.2.089.172a4.815,4.815,0,0,0,2.077-2.392,1.843,1.843,0,0,0-.193-.035A4.636,4.636,0,0,1-9853.693-14214.179Zm-6.866-2.22a4.8,4.8,0,0,0,2.073,2.392l.085-.172a4.648,4.648,0,0,1-1.969-2.255A1.613,1.613,0,0,0-9860.56-14216.4Zm4.518.661a2.484,2.484,0,0,0,1.1-.257,9.5,9.5,0,0,1-2.209,0A2.453,2.453,0,0,0-9856.042-14215.737Zm-7.263-9.644a7.273,7.273,0,0,0,7.263,7.256,7.272,7.272,0,0,0,7.256-7.256v-3.682h-9.646a1.1,1.1,0,0,1-.944-.532l-.847-1.416-.848,1.416a1.092,1.092,0,0,1-.939.532h-1.294Zm14.5,6.059a.687.687,0,0,0,.411-.2,1.1,1.1,0,0,1,.782-.329,1.067,1.067,0,0,1,.622.193,1.861,1.861,0,0,0,1.059.321,1.865,1.865,0,0,0,1.469-.7,1.891,1.891,0,0,0-.164-2.545,1.081,1.081,0,0,1-.3-1.122,3.2,3.2,0,0,1-1.865.618h-.082A9.392,9.392,0,0,1-9848.8-14219.322Zm-14.9-.2a.687.687,0,0,0,.411.2,9.442,9.442,0,0,1-1.927-3.768h-.078a3.213,3.213,0,0,1-1.869-.618,1.081,1.081,0,0,1-.3,1.122,1.9,1.9,0,0,0-.164,2.545,1.87,1.87,0,0,0,1.469.7,1.861,1.861,0,0,0,1.059-.321,1.067,1.067,0,0,1,.622-.193A1.09,1.09,0,0,1-9863.7-14219.522Zm17.111-5.858v.075a.993.993,0,0,0,.79-.973,1,1,0,0,0-.79-.969Zm-19.4-1.6-.007.008a.958.958,0,0,0-.29.7.98.98,0,0,0,.29.7.992.992,0,0,0,.5.269v-1.944A.97.97,0,0,0-9865.989-14226.982Zm6.694-6.741.015.021,1.469,2.448h10.119a1.1,1.1,0,0,1,1.1,1.1v.7a1.677,1.677,0,0,1,.189.021v-1.318a9.658,9.658,0,0,0-9.641-9.647,9.657,9.657,0,0,0-9.647,9.647v1.318a1.672,1.672,0,0,1,.193-.021v-.7a1.1,1.1,0,0,1,1.094-1.1h1.766l1.487-2.47a1.114,1.114,0,0,1,.926-.493A1.12,1.12,0,0,1-9859.295-14233.724Zm-.929,10.73h1.193c0,.969,1.369,1.791,2.985,1.791s2.984-.822,2.984-1.791h1.193c0,1.669-1.833,2.984-4.178,2.984S-9860.224-14221.324-9860.224-14222.993Zm7.163-3.582v-1.193a.6.6,0,0,1,.6-.6.6.6,0,0,1,.6.6v1.193a.6.6,0,0,1-.6.6A.6.6,0,0,1-9853.061-14226.575Zm-7.163,0v-1.193a.6.6,0,0,1,.6-.6.6.6,0,0,1,.6.6v1.193a.6.6,0,0,1-.6.6A.6.6,0,0,1-9860.224-14226.575Z"
      transform="translate(9878.772 14244.093)" fill="#fff" />
  </g>
</svg>