<svg xmlns="http://www.w3.org/2000/svg" xmlns:xlink="http://www.w3.org/1999/xlink" width="15.665" height="18.479" viewBox="0 0 15.665 18.479">
  <defs>
    <filter id="Icon_material-cake" x="0" y="0" width="15.665" height="18.479" filterUnits="userSpaceOnUse">
      <feOffset dy="1" input="SourceAlpha"/>
      <feGaussianBlur stdDeviation="0.5" result="blur"/>
      <feFlood flood-color="#171717" flood-opacity="0.635"/>
      <feComposite operator="in" in2="blur"/>
      <feComposite in="SourceGraphic"/>
    </filter>
  </defs>
  <g transform="matrix(1, 0, 0, 1, 0, 0)" filter="url(#Icon_material-cake)">
    <path id="Icon_material-cake-2" data-name="Icon material-cake" d="M10.832,4.222a1.407,1.407,0,0,0,1.407-1.407,1.339,1.339,0,0,0-.2-.725L10.832,0l-1.2,2.09a1.339,1.339,0,0,0-.2.725A1.411,1.411,0,0,0,10.832,4.222Zm3.236,7.029-.753-.753-.76.753a2.493,2.493,0,0,1-3.441,0L8.363,10.5,7.6,11.25a2.417,2.417,0,0,1-1.717.711A2.445,2.445,0,0,1,4.5,11.532v3.244a.706.706,0,0,0,.7.7H16.461a.706.706,0,0,0,.7-.7V11.532a2.445,2.445,0,0,1-1.379.429A2.417,2.417,0,0,1,14.069,11.25Zm.985-4.918H11.536V4.925H10.129V6.332H6.611A2.108,2.108,0,0,0,4.5,8.443V9.527a1.381,1.381,0,0,0,1.379,1.379,1.35,1.35,0,0,0,.971-.4l1.506-1.5,1.5,1.5a1.411,1.411,0,0,0,1.949,0l1.506-1.5,1.5,1.5a1.362,1.362,0,0,0,.971.4,1.381,1.381,0,0,0,1.379-1.379V8.443A2.1,2.1,0,0,0,15.054,6.332Z" transform="translate(-3 0.5)" fill="#fff"/>
  </g>
</svg>
