<svg xmlns="http://www.w3.org/2000/svg" xmlns:xlink="http://www.w3.org/1999/xlink" width="39.717" height="36.627" viewBox="0 0 39.717 36.627">
  <defs>
    <linearGradient id="linear-gradient" x1="0.069" y1="0.098" x2="0.931" y2="0.961" gradientUnits="objectBoundingBox">
      <stop offset="0" stop-color="white"/>
      <stop offset="1" stop-color="white"/>
    </linearGradient>
  </defs>
  <path id="Path_416" data-name="Path 416" d="M-10356.031-13302.738a1.234,1.234,0,0,1-.225-1.456l11.579-22.111a1.241,1.241,0,0,1,.918-.652,1.071,1.071,0,0,1,.188-.017,1.24,1.24,0,0,1,.88.364l.895.894a7.636,7.636,0,0,0,.177-1.613,7.66,7.66,0,0,0-1.031-3.847,1.244,1.244,0,0,1-.123-.947,1.231,1.231,0,0,1,.579-.75,1.27,1.27,0,0,1,.472-.16,1.111,1.111,0,0,1,.15-.01,1.249,1.249,0,0,1,1.078.622,10.186,10.186,0,0,1,1.366,5.092,10.3,10.3,0,0,1-.677,3.605l4,4a10.118,10.118,0,0,1,5.105-1.409,10.2,10.2,0,0,1,7.652,3.458,1.253,1.253,0,0,1-.113,1.761,1.26,1.26,0,0,1-.824.308,1.244,1.244,0,0,1-.931-.422,7.7,7.7,0,0,0-5.781-2.621,7.6,7.6,0,0,0-3.273.761l1.808,1.8a1.262,1.262,0,0,1,.352,1.068,1.258,1.258,0,0,1-.653.917l-22.114,11.579a1.259,1.259,0,0,1-.579.145A1.232,1.232,0,0,1-10356.031-13302.738Zm5.182-6.417,2.246.7,1.842-.965-3.392-1.061Zm1.868-3.562,5.34,1.667,1.838-.964-6.484-2.025Zm1.864-3.564,8.43,2.634,1.842-.964-9.578-2.993Zm1.868-3.562,8.383,2.618a1.231,1.231,0,0,1-.15-.168l-.011-.017c-.01-.013-.017-.026-.023-.036l-2-2-5.507-1.721Zm17.029,13.36a2.741,2.741,0,0,1,2.735-2.734,2.74,2.74,0,0,1,2.735,2.734,2.74,2.74,0,0,1-2.735,2.735A2.741,2.741,0,0,1-10328.22-13306.484Zm2.491,0a.246.246,0,0,0,.244.245.244.244,0,0,0,.244-.245.243.243,0,0,0-.244-.244A.245.245,0,0,0-10325.729-13306.484Zm-12.48.579a2.732,2.732,0,0,1-.3-2.075,2.728,2.728,0,0,1,1.256-1.674,2.725,2.725,0,0,1,1.506-.382,2.743,2.743,0,0,1,1.059-1.135,2.684,2.684,0,0,1,1.5-.382,2.757,2.757,0,0,1,1.058-1.142,2.74,2.74,0,0,1,1.39-.381c.047,0,.1,0,.15.006a2.823,2.823,0,0,1,.532.081,2.745,2.745,0,0,1,1.674,1.248,1.25,1.25,0,0,1-.436,1.708,1.257,1.257,0,0,1-.636.174,1.238,1.238,0,0,1-1.068-.606.245.245,0,0,0-.15-.113.287.287,0,0,0-.061-.007.236.236,0,0,0-.127.037.225.225,0,0,0-.11.147.24.24,0,0,0,.026.184,1.227,1.227,0,0,1,.175.633,1.257,1.257,0,0,1-.609,1.074,1.291,1.291,0,0,1-.636.175,1.256,1.256,0,0,1-1.068-.609.241.241,0,0,0-.214-.121.238.238,0,0,0-.124.034.252.252,0,0,0-.11.15.224.224,0,0,0,.026.184,1.248,1.248,0,0,1,.171.637,1.259,1.259,0,0,1-.609,1.071,1.257,1.257,0,0,1-.633.174,1.245,1.245,0,0,1-1.071-.612.257.257,0,0,0-.15-.111.425.425,0,0,0-.063-.006.248.248,0,0,0-.121.033.245.245,0,0,0-.113.15.238.238,0,0,0,.03.185,1.251,1.251,0,0,1,.134.94,1.233,1.233,0,0,1-.572.764,1.244,1.244,0,0,1-.633.177A1.264,1.264,0,0,1-10338.209-13305.905Zm15.1-6.28c-.033-.221-.08-.441-.138-.679-.057-.215-.127-.439-.2-.656a1.253,1.253,0,0,1,.76-1.591,1.243,1.243,0,0,1,.412-.07.543.543,0,0,1,.08,0,1.235,1.235,0,0,1,1.095.826c.107.3.194.586.269.874.076.3.141.606.188.9a1.253,1.253,0,0,1-1.035,1.43c-.066.006-.13.013-.194.013A1.245,1.245,0,0,1-10323.107-13312.186Zm-34.893-3.233a2.735,2.735,0,0,1,2.735-2.731,2.734,2.734,0,0,1,2.731,2.731,2.738,2.738,0,0,1-2.731,2.735A2.738,2.738,0,0,1-10358-13315.419Zm2.49,0a.246.246,0,0,0,.245.244.244.244,0,0,0,.244-.244.245.245,0,0,0-.244-.244A.244.244,0,0,0-10355.51-13315.419Zm31.76-5.955a2.736,2.736,0,0,1,2.734-2.735,2.736,2.736,0,0,1,2.732,2.735,2.735,2.735,0,0,1-2.732,2.731A2.735,2.735,0,0,1-10323.75-13321.374Zm2.49,0a.244.244,0,0,0,.244.244.246.246,0,0,0,.245-.244.246.246,0,0,0-.245-.245A.244.244,0,0,0-10321.26-13321.374Zm-15.814-.56a1.25,1.25,0,0,1-.043-1.761,10.623,10.623,0,0,0,2.942-7.361,10.724,10.724,0,0,0-1.078-4.674,1.231,1.231,0,0,1-.06-.95,1.239,1.239,0,0,1,.632-.713,1.264,1.264,0,0,1,.476-.128h.067a1.251,1.251,0,0,1,1.121.7,13.243,13.243,0,0,1,1.332,5.765,13.121,13.121,0,0,1-3.628,9.079,1.23,1.23,0,0,1-.9.381A1.259,1.259,0,0,1-10337.074-13321.934Zm-13.48-.931a1.247,1.247,0,0,1,1.245-1.245,1.247,1.247,0,0,1,1.245,1.245,1.247,1.247,0,0,1-1.245,1.245A1.247,1.247,0,0,1-10350.555-13322.864Zm19.765-.95a1.253,1.253,0,0,1,0-1.762,1.235,1.235,0,0,1,.88-.364,1.231,1.231,0,0,1,.877.364.257.257,0,0,0,.175.07.249.249,0,0,0,.174-.07.239.239,0,0,0,.07-.174.24.24,0,0,0-.07-.174,1.253,1.253,0,0,1-.365-.881,1.236,1.236,0,0,1,.365-.88,1.236,1.236,0,0,1,.881-.365,1.241,1.241,0,0,1,.88.365.248.248,0,0,0,.171.07.249.249,0,0,0,.174-.07.239.239,0,0,0,0-.345,1.255,1.255,0,0,1-.365-.881,1.243,1.243,0,0,1,.365-.884,1.24,1.24,0,0,1,.881-.364,1.24,1.24,0,0,1,.88.364.245.245,0,0,0,.171.063.246.246,0,0,0,.174-.063.24.24,0,0,0,.07-.174.232.232,0,0,0-.07-.171,1.254,1.254,0,0,1,0-1.761,1.243,1.243,0,0,1,.881-.365,1.246,1.246,0,0,1,.88.365,2.716,2.716,0,0,1,.8,1.932,2.716,2.716,0,0,1-.8,1.935,2.74,2.74,0,0,1-1.369.74,2.731,2.731,0,0,1-.739,1.369,2.761,2.761,0,0,1-1.362.739,2.759,2.759,0,0,1-.743,1.366,2.726,2.726,0,0,1-1.932.8A2.726,2.726,0,0,1-10330.79-13323.814Zm-21.255-3.516a2.738,2.738,0,0,1,.442-1.489,2.759,2.759,0,0,1-.442-1.49,2.746,2.746,0,0,1,.442-1.489,2.759,2.759,0,0,1-.442-1.49,2.738,2.738,0,0,1,2.735-2.731,1.244,1.244,0,0,1,1.245,1.242,1.247,1.247,0,0,1-1.245,1.245.245.245,0,0,0-.244.244.246.246,0,0,0,.244.245,1.247,1.247,0,0,1,1.245,1.245,1.247,1.247,0,0,1-1.245,1.245.245.245,0,0,0-.244.244.245.245,0,0,0,.244.244,1.247,1.247,0,0,1,1.245,1.246,1.244,1.244,0,0,1-1.245,1.241.247.247,0,0,0-.244.248.245.245,0,0,0,.244.244,1.244,1.244,0,0,1,1.245,1.242,1.247,1.247,0,0,1-1.245,1.245A2.737,2.737,0,0,1-10352.045-13327.33Zm7.888-5.714c-.1-.088-.2-.175-.295-.252s-.187-.144-.308-.237a1.252,1.252,0,0,1-.262-1.74,1.228,1.228,0,0,1,.817-.486,1.166,1.166,0,0,1,.184-.017,1.251,1.251,0,0,1,.74.245c.147.11.271.2.389.3l.006,0c.128.1.252.211.389.331a1.247,1.247,0,0,1,.1,1.755,1.252,1.252,0,0,1-.931.418A1.239,1.239,0,0,1-10344.157-13333.044Zm14.451-3.225a2.735,2.735,0,0,1,2.732-2.731,2.735,2.735,0,0,1,2.734,2.731,2.736,2.736,0,0,1-2.734,2.735A2.736,2.736,0,0,1-10329.706-13336.269Zm2.487,0a.251.251,0,0,0,.245.248.244.244,0,0,0,.244-.248.24.24,0,0,0-.244-.24A.248.248,0,0,0-10327.219-13336.269Zm-14.4,0a2.736,2.736,0,0,1,2.735-2.731,2.735,2.735,0,0,1,2.731,2.731,2.736,2.736,0,0,1-2.731,2.735A2.737,2.737,0,0,1-10341.62-13336.269Zm2.491,0a.248.248,0,0,0,.244.248.246.246,0,0,0,.244-.248.242.242,0,0,0-.244-.24A.245.245,0,0,0-10339.129-13336.269Z" transform="translate(10358 13339)" fill="url(#linear-gradient)"/>
</svg>
