<svg xmlns="http://www.w3.org/2000/svg" width="26.936" height="26.937" viewBox="0 0 26.936 26.937">
  <path id="Path_404" data-name="Path 404" d="M-2613.488-13264.8l-.067-.069-2.275-3.479h-5.153a11.083,11.083,0,0,1-7.758-3.1,10.658,10.658,0,0,1-3.259-7.722,10.657,10.657,0,0,1,3.259-7.721,11.084,11.084,0,0,1,7.758-3.1h4.906a10.677,10.677,0,0,1,4.306.914,11.145,11.145,0,0,1,3.5,2.441,11.262,11.262,0,0,1,2.342,3.546,11.05,11.05,0,0,1,.867,4.3v10.36c0,2.965-1.411,5.376-4.379,5.376A5.735,5.735,0,0,1-2613.488-13264.8Zm-15.513-14.372a7.865,7.865,0,0,0,8.018,7.825h6.447l3.165,4.419c1.841,1.835,3.309.49,3.309-1.507v-10.36a8.208,8.208,0,0,0-8.042-8.2h-4.88A7.865,7.865,0,0,0-2629-13279.176Zm13.969.144a1.5,1.5,0,0,1,1.5-1.5,1.5,1.5,0,0,1,1.5,1.5,1.5,1.5,0,0,1-1.5,1.5A1.5,1.5,0,0,1-2615.032-13279.032Zm-5,0a1.5,1.5,0,0,1,1.5-1.5,1.5,1.5,0,0,1,1.5,1.5,1.5,1.5,0,0,1-1.5,1.5A1.5,1.5,0,0,1-2620.031-13279.032Zm-5,0a1.5,1.5,0,0,1,1.5-1.5,1.5,1.5,0,0,1,1.5,1.5,1.5,1.5,0,0,1-1.5,1.5A1.5,1.5,0,0,1-2625.031-13279.032ZM-2616.1-13287Z" transform="translate(2631.999 13289.999)" fill="#faae1d"/>
</svg>
