<svg xmlns="http://www.w3.org/2000/svg" width="13.711" height="23.42" viewBox="0 0 13.711 23.42">
  <path id="Path_197" data-name="Path 197" d="M4710.709,3343.148h0a2,2,0,0,1-1.5-.687c-2.694-3.094-7.574-8.351-9.2-9.292a2,2,0,1,1,2-3.464c.454.262,1.833,1.059,6.259,5.764.921.979,1.776,1.917,2.455,2.671.688-.76,1.555-1.708,2.486-2.695,3.989-4.23,5.46-5.3,6.221-5.74a2,2,0,1,1,2,3.465c-1.475.851-6.271,5.948-9.205,9.3A2,2,0,0,1,4710.709,3343.148Z" transform="translate(3343.148 -4698.999) rotate(90)" fill="#fff"/>
</svg>
