<svg xmlns="http://www.w3.org/2000/svg" width="24.876" height="24.876" viewBox="0 0 24.876 24.876">
  <path id="Path_417" data-name="Path 417" d="M-2631.562-13265.563a1.505,1.505,0,0,1-.394-1.425l1.278-5.109a1.53,1.53,0,0,1,.394-.7l15.973-15.973a4.194,4.194,0,0,1,2.979-1.231,4.194,4.194,0,0,1,2.979,1.231,4.22,4.22,0,0,1,0,5.957l-15.973,15.97a1.505,1.505,0,0,1-.7.4l-5.113,1.277a1.469,1.469,0,0,1-.361.044A1.5,1.5,0,0,1-2631.562-13265.563Zm19.372-21.083-15.676,15.68-.574,2.281,2.285-.57,15.679-15.677a1.217,1.217,0,0,0,0-1.714,1.216,1.216,0,0,0-.857-.354A1.215,1.215,0,0,0-2612.19-13286.646Zm-6.934,21.523a1.5,1.5,0,0,1-1.5-1.5,1.5,1.5,0,0,1,1.5-1.5h10.5a1.5,1.5,0,0,1,1.5,1.5,1.5,1.5,0,0,1-1.5,1.5Z" transform="translate(2632 13289.999)" fill="#faae1d"/>
</svg>
