<svg xmlns="http://www.w3.org/2000/svg" width="34.859" height="27.024" viewBox="0 0 34.859 27.024">
  <path id="Path_407" data-name="Path 407" d="M-5296.253-13262.976a2.007,2.007,0,0,1-1.738-1.054l-1.5-2.605-3.5,2.015a2,2,0,0,1-1,.271,2,2,0,0,1-1.571-.754,2.018,2.018,0,0,1,.1-2.621l0,0a2.1,2.1,0,0,1,.467-.367l3.489-2.015-1.507-2.614a1.991,1.991,0,0,1,.23-2.358,2,2,0,0,1,1.494-.667c.073,0,.147,0,.224.01a2.026,2.026,0,0,1,1.524,1.008l1.511,2.618,5.4-3.119a11.033,11.033,0,0,1-.11-7.063,11.042,11.042,0,0,1,5-6.225,11.062,11.062,0,0,1,5.513-1.478c.26,0,.527.007.787.027a11.066,11.066,0,0,1,8.815,5.5,11.078,11.078,0,0,1-4.053,15.112,11.033,11.033,0,0,1-5.513,1.478,11.114,11.114,0,0,1-8.438-3.879l-5.4,3.115,1.5,2.608a2,2,0,0,1,.043,2.031,2.005,2.005,0,0,1-1.751,1.027Zm10.526-22.066a7,7,0,0,0-3.292,4.279,6.988,6.988,0,0,0,.71,5.35,7.047,7.047,0,0,0,2.628,2.618,7.1,7.1,0,0,0,3.476.914,7.059,7.059,0,0,0,3.529-.95,7,7,0,0,0,3.289-4.279,7.012,7.012,0,0,0-.71-5.354,7.041,7.041,0,0,0-5.613-3.513c-.16-.01-.327-.017-.49-.017A7.077,7.077,0,0,0-5285.727-13285.042Z" transform="translate(5306 13290)" fill="#faae1d"/>
</svg>
