<svg xmlns="http://www.w3.org/2000/svg" xmlns:xlink="http://www.w3.org/1999/xlink" width="55" height="55.004" viewBox="0 0 55 55.004">
  <defs>
    <filter id="Path_152" x="0" y="0" width="55" height="55.004" filterUnits="userSpaceOnUse">
      <feOffset dy="3" input="SourceAlpha"/>
      <feGaussianBlur stdDeviation="3" result="blur"/>
      <feFlood flood-color="#803600" flood-opacity="0.463"/>
      <feComposite operator="in" in2="blur"/>
      <feComposite in="SourceGraphic"/>
    </filter>
  </defs>
  <g transform="matrix(1, 0, 0, 1, 0, 0)" filter="url(#Path_152)">
    <path id="Path_152-2" data-name="Path 152" d="M35.545,10.181H33.336a4.582,4.582,0,0,0,1.391-3.273A4.733,4.733,0,0,0,29.818,2c-3.613,0-6.527,3.542-7.1,4.289A2.782,2.782,0,0,0,20,6.655a2.782,2.782,0,0,0-2.716-.367C16.708,5.541,13.794,2,10.182,2A4.733,4.733,0,0,0,5.273,6.908a4.582,4.582,0,0,0,1.391,3.273H4.455A2.455,2.455,0,0,0,2,12.636v4.091a2.455,2.455,0,0,0,2.455,2.455v7.364a.818.818,0,1,0,1.636,0V19.181h9V36.363H6.909a.818.818,0,0,1-.818-.818V31.454a.818.818,0,0,0-1.636,0v4.091A2.455,2.455,0,0,0,6.909,38H33.091a2.455,2.455,0,0,0,2.455-2.455V20.817a.818.818,0,1,0-1.636,0V35.545a.818.818,0,0,1-.818.818H24.909V19.181H35.545A2.455,2.455,0,0,0,38,16.727V12.636A2.455,2.455,0,0,0,35.545,10.181ZM29.818,3.636a3.174,3.174,0,0,1,3.273,3.273c0,2.018-2.094,3.048-2.614,3.273H24.886c.011-.136.023-.272.02-.409C26.083,8.9,28,7.727,29,7.727A.818.818,0,1,0,29,6.09c-1.419,0-3.35,1.168-4.491,1.955a4,4,0,0,0-.484-.773C24.5,6.654,27,3.636,29.818,3.636ZM14.273,17.545V11.817h1.291a4.279,4.279,0,0,0,.491.794l1.8,2.234a2.7,2.7,0,0,0,4.293,0l1.8-2.234a4.279,4.279,0,0,0,.491-.794h1.289v5.727Zm3.9-9.811a1.161,1.161,0,0,1,.133-.007,1.363,1.363,0,0,1,1.054.567.846.846,0,0,0,1.276,0,1.325,1.325,0,0,1,1.187-.56A1.644,1.644,0,0,1,23.04,8.763a2.769,2.769,0,0,1-.373,2.823l-1.8,2.234a1.088,1.088,0,0,1-1.743,0l-1.8-2.234a2.77,2.77,0,0,1-.373-2.824,1.645,1.645,0,0,1,1.224-1.028ZM6.909,6.908a3.174,3.174,0,0,1,3.273-3.273c2.809,0,5.31,3.017,5.793,3.636a4,4,0,0,0-.484.773C14.35,7.258,12.419,6.09,11,6.09a.818.818,0,1,0,0,1.636c1,0,2.917,1.172,4.091,2.045,0,.136.01.272.02.409H9.527C9,9.954,6.909,8.924,6.909,6.908ZM3.636,16.727V12.636a.818.818,0,0,1,.818-.818h8.182v5.727H4.455A.818.818,0,0,1,3.636,16.727ZM23.273,36.363H16.727V19.181h6.545ZM36.364,16.727a.818.818,0,0,1-.818.818H27.364V11.817h8.182a.818.818,0,0,1,.818.818ZM4.455,29a.818.818,0,1,1,.818.818A.818.818,0,0,1,4.455,29Z" transform="translate(7.5 4.5)" fill="#fff" stroke="#fff" stroke-width="1"/>
  </g>
</svg>
