<svg xmlns="http://www.w3.org/2000/svg" xmlns:xlink="http://www.w3.org/1999/xlink" width="243.975" height="223.404" viewBox="0 0 243.975 223.404">
  <defs>
    <linearGradient id="linear-gradient" x1="0.5" x2="0.5" y2="1" gradientUnits="objectBoundingBox">
      <stop offset="0" stop-color="#f75252"/>
      <stop offset="1" stop-color="#e03737"/>
    </linearGradient>
    <filter id="Path_402" x="68.5" y="35.47" width="107.755" height="107.755" filterUnits="userSpaceOnUse">
      <feOffset input="SourceAlpha"/>
      <feGaussianBlur stdDeviation="1.5" result="blur"/>
      <feFlood flood-color="#171717" flood-opacity="0.416"/>
      <feComposite operator="in" in2="blur"/>
      <feComposite in="SourceGraphic"/>
    </filter>
    <linearGradient id="linear-gradient-2" x1="0.558" y1="0.106" x2="0.79" y2="0.717" gradientUnits="objectBoundingBox">
      <stop offset="0" stop-color="#faae1d"/>
      <stop offset="1" stop-color="#e69a09"/>
    </linearGradient>
    <filter id="Path_449" x="86.213" y="5.814" width="46.966" height="43.401" filterUnits="userSpaceOnUse">
      <feOffset input="SourceAlpha"/>
      <feGaussianBlur stdDeviation="1.5" result="blur-2"/>
      <feFlood flood-color="#171717" flood-opacity="0.416"/>
      <feComposite operator="in" in2="blur-2"/>
      <feComposite in="SourceGraphic"/>
    </filter>
    <linearGradient id="linear-gradient-3" x1="0.428" y1="0.884" x2="0.676" y2="0.245" gradientUnits="objectBoundingBox">
      <stop offset="0" stop-color="#00afa1"/>
      <stop offset="1" stop-color="#00897e"/>
    </linearGradient>
    <filter id="Path_450" x="114.317" y="0" width="55.934" height="51.528" filterUnits="userSpaceOnUse">
      <feOffset input="SourceAlpha"/>
      <feGaussianBlur stdDeviation="1.5" result="blur-3"/>
      <feFlood flood-color="#171717" flood-opacity="0.416"/>
      <feComposite operator="in" in2="blur-3"/>
      <feComposite in="SourceGraphic"/>
    </filter>
  </defs>
  <g id="Group_201" data-name="Group 201" transform="translate(-135.088 -442.411)">
    <g id="Group_76" data-name="Group 76" transform="translate(135.088 433.911)">
      <path id="Path_403" data-name="Path 403" d="M21.179,3.482c0,3.433-1.585,5.15-4.292,5.15-2.905,0-4.622-1.915-4.622-5.877H1.04c0,10.432,6.669,15.979,16.177,15.979,9.178,0,15.253-5.282,15.253-15.253V-28.08H21.179ZM77.633-.15c0-11.687-8.32-18.95-19.148-18.95-10.763,0-19.148,7.263-19.148,18.95S47.524,18.8,58.353,18.8,77.633,11.537,77.633-.15Zm-26.808,0c0-6.273,3.566-9.178,7.659-9.178,3.962,0,7.659,2.905,7.659,9.178,0,6.207-3.764,9.178-7.791,9.178C54.259,9.028,50.825,6.057,50.825-.15Zm49.785,4.622L92.093-18.572H79.482L94.47,17.017,86.019,35.77H98.168l23.11-54.341H109.063Zm41-14.526c3.764,0,6.933,2.311,6.933,6.339h-14.13C135.078-7.809,137.917-10.054,141.615-10.054Zm17.63,16.111H147.227a6,6,0,0,1-5.877,3.566c-3.632,0-6.6-2.245-7-7.065H159.9a28.53,28.53,0,0,0,.2-3.3c0-11.225-7.593-18.356-18.356-18.356-10.961,0-18.62,7.263-18.62,18.95s7.791,18.95,18.62,18.95C150.925,18.8,157.461,13.254,159.244,6.057Zm43.183-24.629H191.136V1.435c0,5.018-2.773,7.791-7.131,7.791-4.226,0-7.065-2.773-7.065-7.791V-18.572H165.715V2.953c0,9.838,5.744,15.715,14.262,15.715a13.425,13.425,0,0,0,11.159-5.414v5.018h11.291Zm29.911,36.844h12.677L232.338-.018l12.347-18.554H232.47L226.527-8.4l-7.065-10.168H206.785L219.264-.546,207.115,18.272H219.33l5.943-10.234Z" transform="translate(-1.04 196.135)" fill="#fff"/>
      <g id="Group_214" data-name="Group 214" transform="translate(73 13.001)">
        <g transform="matrix(1, 0, 0, 1, -73, -4.5)" filter="url(#Path_402)">
          <g id="Path_402-2" data-name="Path 402" transform="translate(73 39.97)" fill="url(#linear-gradient)">
            <path d="M49.378,98.755A49.287,49.287,0,0,1,23.7,91.562c.724-.271,1.468-.568,2.212-.884a55.445,55.445,0,0,0,9.426-5.144,55.933,55.933,0,0,0,8.214-6.816,56.093,56.093,0,0,0,6.777-8.258,56.013,56.013,0,0,0,5.117-9.48,55.816,55.816,0,0,0,3.234-10.474,56.652,56.652,0,0,0,1.126-11.248c0-.911-.022-1.823-.065-2.708H42.729c.065.929.1,1.855.1,2.749a39.243,39.243,0,0,1-.781,7.8,38.558,38.558,0,0,1-5.79,13.835,38.909,38.909,0,0,1-4.7,5.726,38.822,38.822,0,0,1-5.694,4.724,38.418,38.418,0,0,1-6.536,3.567A38.083,38.083,0,0,1,12.1,77.2c-1.04.214-2.106.386-3.169.513A49.066,49.066,0,0,1,0,49.378V14.851A14.868,14.868,0,0,1,14.851,0H83.9A14.868,14.868,0,0,1,98.755,14.851V49.378A49.337,49.337,0,0,1,49.378,98.755Zm1.846-87.369a8.953,8.953,0,1,0,8.954,8.952A8.962,8.962,0,0,0,51.224,11.387Z" stroke="none"/>
            <path d="M 49.37773895263672 97.75548553466797 C 55.90901947021484 97.75548553466797 62.24444580078125 96.47650146484375 68.20804595947266 93.95407104492188 C 73.96871185302734 91.51747131347656 79.14253997802734 88.02908325195312 83.58580780029297 83.58580780029297 C 88.02908325195312 79.14253997802734 91.51747131347656 73.96871185302734 93.95407104492188 68.20804595947266 C 96.47650146484375 62.24444580078125 97.75548553466797 55.90901947021484 97.75548553466797 49.37773895263672 L 97.75548553466797 14.8508186340332 C 97.75548553466797 7.213459014892578 91.54203033447266 1.000005602836609 83.90467071533203 1.000005602836609 L 14.8508186340332 1.000005602836609 C 7.213459014892578 1.000005602836609 1.000005602836609 7.213459014892578 1.000005602836609 14.8508186340332 L 1.000005602836609 49.37773895263672 C 1.000005602836609 59.18066024780273 3.906835317611694 68.59603118896484 9.41192626953125 76.64646911621094 C 10.24902820587158 76.53291320800781 11.08453273773193 76.3907470703125 11.90304565429688 76.22245788574219 C 14.31031227111816 75.7269287109375 16.67624473571777 74.98811340332031 18.93540573120117 74.02640533447266 C 21.15749931335449 73.08119201660156 23.29901885986328 71.91248321533203 25.30056571960449 70.55271148681641 C 27.28188514709473 69.20693969726562 29.14815139770508 67.65843200683594 30.8475399017334 65.95023345947266 C 32.5396728515625 64.24933624267578 34.07936477661133 62.37257766723633 35.42399215698242 60.37183380126953 C 36.77441787719727 58.36373901367188 37.93744659423828 56.20984649658203 38.88053894042969 53.97060394287109 C 39.83686065673828 51.69565963745117 40.57157897949219 49.31535339355469 41.06420516967773 46.89619064331055 C 41.56939315795898 44.40983200073242 41.82555389404297 41.85344696044922 41.82555389404297 39.29803085327148 C 41.82555389404297 38.41788482666016 41.79393768310547 37.51623153686523 41.73160552978516 36.61813735961914 L 41.65739059448242 35.54890060424805 L 60.69467163085938 35.54890060424805 L 60.74081802368164 36.50045776367188 C 60.78455352783203 37.40219116210938 60.80672454833984 38.32976531982422 60.80672454833984 39.25739288330078 C 60.80672454833984 43.1071662902832 60.42111206054688 46.9584846496582 59.66044616699219 50.70508575439453 C 58.91658020019531 54.35541915893555 57.80897903442383 57.94271087646484 56.36837768554688 61.36740493774414 C 54.95260620117188 64.73204803466797 53.2000732421875 67.97883605957031 51.15933990478516 71.01766967773438 C 49.13973999023438 74.02410125732422 46.81904602050781 76.85212707519531 44.2619514465332 79.42300415039062 C 41.70876693725586 81.99150848388672 38.89553833007812 84.32572937011719 35.90028381347656 86.36090850830078 C 32.88002014160156 88.41224670410156 29.65121841430664 90.17437744140625 26.30341911315918 91.59844207763672 C 26.1973705291748 91.64353179931641 26.09098052978516 91.68836975097656 25.98418617248535 91.73297882080078 C 33.11848831176758 95.67914581298828 41.16249465942383 97.75548553466797 49.37773895263672 97.75548553466797 M 51.22355270385742 10.38651275634766 C 56.71195220947266 10.38651275634766 61.17709732055664 14.85097885131836 61.17709732055664 20.33855247497559 C 61.17709732055664 25.82695198059082 56.71195220947266 30.29208564758301 51.22355270385742 30.29208564758301 C 45.73597717285156 30.29208564758301 41.27151107788086 25.82695198059082 41.27151107788086 20.33855247497559 C 41.27151107788086 14.85097885131836 45.73597717285156 10.38651275634766 51.22355270385742 10.38651275634766 M 49.37773895263672 98.75548553466797 C 40.29487228393555 98.75548553466797 31.41584587097168 96.26805877685547 23.70055198669434 91.56214141845703 C 24.42431259155273 91.29084777832031 25.16828536987305 90.99443054199219 25.91213989257812 90.67816925048828 C 29.2001781463623 89.27952575683594 32.37165832519531 87.54867553710938 35.33843231201172 85.53366851806641 C 38.28076553344727 83.53444671630859 41.04446029663086 81.24134063720703 43.55273818969727 78.718017578125 C 46.06517791748047 76.19203186035156 48.34512710571289 73.41364288330078 50.32924652099609 70.46004486083984 C 52.33414077758789 67.47456359863281 54.05585861206055 64.28485870361328 55.4466438293457 60.97956466674805 C 56.86174011230469 57.61551284790039 57.94980621337891 54.09148406982422 58.68058013916016 50.50540542602539 C 59.42783355712891 46.82487106323242 59.80672454833984 43.04048538208008 59.80672454833984 39.25739288330078 C 59.80672454833984 38.34597778320312 59.78495407104492 37.43470001220703 59.74199295043945 36.54890060424805 L 42.72920608520508 36.54890060424805 C 42.7937126159668 37.47823333740234 42.82555389404297 38.40379333496094 42.82555389404297 39.29803085327148 C 42.82555389404297 41.9201774597168 42.56266021728516 44.54356384277344 42.0441780090332 47.09531402587891 C 41.53837966918945 49.57916641235352 40.78413772583008 52.02271270751953 39.80239105224609 54.35812377929688 C 38.83406066894531 56.65732574462891 37.64014053344727 58.86837768554688 36.25380706787109 60.92987060546875 C 34.87392425537109 62.98307418823242 33.29353713989258 64.90946197509766 31.55647277832031 66.65550994873047 C 29.81216621398926 68.40887451171875 27.89641952514648 69.99839019775391 25.86244583129883 71.37993621826172 C 23.8073787689209 72.77606964111328 21.60847282409668 73.97607421875 19.32683181762695 74.94661712646484 C 17.00685882568359 75.9342041015625 14.57696533203125 76.69300842285156 12.1046724319458 77.20192718505859 C 11.06475257873535 77.41572570800781 9.998619079589844 77.58841705322266 8.935898780822754 77.71523284912109 C 3.089432239532471 69.38701629638672 5.619303465209669e-06 59.58832550048828 5.619303465209669e-06 49.37773895263672 L 5.619303465209669e-06 14.8508186340332 C 5.619303465209669e-06 6.662045478820801 6.662045478820801 5.619303465209669e-06 14.8508186340332 5.619303465209669e-06 L 83.90467071533203 5.619303465209669e-06 C 92.09344482421875 5.619303465209669e-06 98.75548553466797 6.662045478820801 98.75548553466797 14.8508186340332 L 98.75548553466797 49.37773895263672 C 98.75548553466797 56.04356384277344 97.44992828369141 62.51007080078125 94.87506866455078 68.59760284423828 C 92.3880615234375 74.47747039794922 88.82771301269531 79.75812530517578 84.29291534423828 84.29291534423828 C 79.75812530517578 88.82771301269531 74.47747039794922 92.3880615234375 68.59760284423828 94.87506866455078 C 62.51007080078125 97.44992828369141 56.04356384277344 98.75548553466797 49.37773895263672 98.75548553466797 Z M 51.22355270385742 11.38651275634766 C 46.28738021850586 11.38651275634766 42.27151107788086 15.40237903594971 42.27151107788086 20.33855247497559 C 42.27151107788086 25.27555274963379 46.28738021850586 29.29208564758301 51.22355270385742 29.29208564758301 C 56.16055297851562 29.29208564758301 60.17709732055664 25.27555274963379 60.17709732055664 20.33855247497559 C 60.17709732055664 15.40237903594971 56.16055297851562 11.38651275634766 51.22355270385742 11.38651275634766 Z" stroke="none" fill="rgba(255,255,255,0.32)"/>
          </g>
        </g>
        <g transform="matrix(1, 0, 0, 1, -73, -4.5)" filter="url(#Path_449)">
          <g id="Path_449-2" data-name="Path 449" transform="translate(101.52 10.31) rotate(30)" fill="url(#linear-gradient-2)">
            <path d="M10.809,0c5.97,0,20.548,10.809,20.548,10.809S16.779,21.619,10.809,21.619A10.809,10.809,0,1,1,10.809,0Z" stroke="none"/>
            <path d="M 10.8094596862793 1.000001907348633 C 5.400508880615234 1.000001907348633 0.9999980926513672 5.400510787963867 0.9999980926513672 10.80946159362793 C 0.9999980926513672 16.21841049194336 5.400508880615234 20.61892127990723 10.8094596862793 20.61892127990723 C 12.38127899169922 20.61892127990723 15.73502922058105 19.708251953125 22.78611755371094 15.36981201171875 C 25.66647148132324 13.59755992889404 28.24634170532227 11.80795001983643 29.64940071105957 10.80941963195801 C 28.24894332885742 9.81266975402832 25.67552947998047 8.027478218078613 22.79787826538086 6.256351470947266 C 15.73923873901367 1.911931991577148 12.38246917724609 1.000001907348633 10.8094596862793 1.000001907348633 M 10.8094596862793 1.9073486328125e-06 C 16.77936935424805 1.9073486328125e-06 31.35717964172363 10.80946159362793 31.35717964172363 10.80946159362793 C 31.35717964172363 10.80946159362793 16.77936935424805 21.61892127990723 10.8094596862793 21.61892127990723 C 4.839559555053711 21.61892127990723 -1.9073486328125e-06 16.77936172485352 -1.9073486328125e-06 10.80946159362793 C -1.9073486328125e-06 4.839561462402344 4.839559555053711 1.9073486328125e-06 10.8094596862793 1.9073486328125e-06 Z" stroke="none" fill="rgba(255,255,255,0.32)"/>
          </g>
        </g>
        <g transform="matrix(1, 0, 0, 1, -73, -4.5)" filter="url(#Path_450)">
          <g id="Path_450-2" data-name="Path 450" transform="translate(165.75 27.65) rotate(150)" fill="url(#linear-gradient-3)">
            <path d="M13.363,26.726c7.38,0,25.4-13.363,25.4-13.363S20.743,0,13.363,0a13.363,13.363,0,1,0,0,26.726Z" stroke="none"/>
            <path d="M 13.36306190490723 25.72603225708008 L 13.36307144165039 25.72603225708008 C 16.19410133361816 25.72603225708008 21.35780143737793 23.46942138671875 28.29591178894043 19.20017242431641 C 32.05446624755859 16.88741111755371 35.39881896972656 14.55146217346191 37.06034851074219 13.36306762695312 C 35.39874267578125 12.17466259002686 32.05421829223633 9.838678359985352 28.29558181762695 7.525902271270752 C 21.3573112487793 3.256622314453125 16.19371223449707 1.000002264976501 13.36301136016846 1.000002264976501 L 13.36297130584717 1.000002264976501 C 10.0609712600708 1.000002264976501 6.95643138885498 2.286032199859619 4.621241569519043 4.62120246887207 C 2.286051511764526 6.956392288208008 1.000001549720764 10.06095218658447 1.000001549720764 13.36299228668213 C 1.000001549720764 16.6652717590332 2.285991430282593 19.7698917388916 4.621071338653564 22.10497283935547 C 6.956141471862793 24.44004249572754 10.06078147888184 25.72603225708008 13.36307144165039 25.72603225708008 L 13.36306190490723 25.72603225708008 M 13.36306190490723 26.72603225708008 C 5.982861518859863 26.72602272033691 1.149353010987397e-05 20.74317169189453 1.493530248808383e-06 13.36299228668213 C -8.50646938488353e-06 5.982802391052246 5.982811450958252 -1.76861576619558e-05 13.36301136016846 2.313842742296401e-06 C 20.74322128295898 1.231384248967515e-05 38.76486206054688 13.36305236816406 38.76486206054688 13.36305236816406 C 38.76486206054688 13.36305236816406 20.74326133728027 26.72604179382324 13.36306190490723 26.72603225708008 Z" stroke="none" fill="rgba(255,255,255,0.32)"/>
          </g>
        </g>
      </g>
    </g>
  </g>
</svg>
