<svg xmlns="http://www.w3.org/2000/svg" width="19.225" height="20.132" viewBox="0 0 19.225 20.132">
  <path id="Path_271" data-name="Path 271" d="M14.077,19.132H12.309a2.123,2.123,0,0,1-2.067-2.105V14.238a.294.294,0,0,0-.3-.287H7.331a.294.294,0,0,0-.3.286v2.78A1,1,0,0,1,7,17.273a2.124,2.124,0,0,1-2.11,1.859H3.148A4.137,4.137,0,0,1-1,15.015v-7.9s0-.007,0-.01A3.174,3.174,0,0,1,.256,4.6L6.186-.159l0,0a3.883,3.883,0,0,1,4.818,0l5.96,4.753a3.194,3.194,0,0,1,1.256,2.5s0,.009,0,.014v7.909A4.137,4.137,0,0,1,14.077,19.132Zm-1.727-2h1.727a2.135,2.135,0,0,0,2.148-2.117v-7.9a1.206,1.206,0,0,0-.479-.94l-.017-.013L9.764,1.4a1.894,1.894,0,0,0-2.329,0L1.5,6.167l-.022.017A1.187,1.187,0,0,0,1,7.121v7.894a2.135,2.135,0,0,0,2.148,2.117H4.893a.12.12,0,0,0,.125-.114,1.006,1.006,0,0,1,.017-.187V14.238a2.3,2.3,0,0,1,2.284-2.286H9.943a2.3,2.3,0,0,1,2.3,2.287v2.789A.111.111,0,0,0,12.35,17.132Z" transform="translate(1 1)" fill="#fff"/>
</svg>
