<svg xmlns="http://www.w3.org/2000/svg" xmlns:xlink="http://www.w3.org/1999/xlink" width="66.437" height="84.067" viewBox="0 0 66.437 84.067">
  <defs>
    <linearGradient id="linear-gradient" x1="0.5" x2="0.5" y2="1" gradientUnits="objectBoundingBox">
      <stop offset="0" stop-color="#f75252"/>
      <stop offset="1" stop-color="#e03737"/>
    </linearGradient>
    <filter id="Path_402" x="0" y="17.63" width="66.437" height="66.437" filterUnits="userSpaceOnUse">
      <feOffset input="SourceAlpha"/>
      <feGaussianBlur stdDeviation="1.5" result="blur"/>
      <feFlood flood-color="#171717" flood-opacity="0.416"/>
      <feComposite operator="in" in2="blur"/>
      <feComposite in="SourceGraphic"/>
    </filter>
    <linearGradient id="linear-gradient-2" x1="0.558" y1="0.106" x2="0.79" y2="0.717" gradientUnits="objectBoundingBox">
      <stop offset="0" stop-color="#faae1d"/>
      <stop offset="1" stop-color="#e69a09"/>
    </linearGradient>
    <filter id="Path_451" x="13.302" y="3.382" width="25.081" height="23.008" filterUnits="userSpaceOnUse">
      <feOffset input="SourceAlpha"/>
      <feGaussianBlur stdDeviation="0.5" result="blur-2"/>
      <feFlood flood-color="#171717" flood-opacity="0.416"/>
      <feComposite operator="in" in2="blur-2"/>
      <feComposite in="SourceGraphic"/>
    </filter>
    <linearGradient id="linear-gradient-3" x1="0.428" y1="0.884" x2="0.676" y2="0.245" gradientUnits="objectBoundingBox">
      <stop offset="0" stop-color="#00afa1"/>
      <stop offset="1" stop-color="#00897e"/>
    </linearGradient>
    <filter id="Path_452" x="29.648" y="0" width="30.297" height="27.735" filterUnits="userSpaceOnUse">
      <feOffset input="SourceAlpha"/>
      <feGaussianBlur stdDeviation="0.5" result="blur-3"/>
      <feFlood flood-color="#171717" flood-opacity="0.416"/>
      <feComposite operator="in" in2="blur-3"/>
      <feComposite in="SourceGraphic"/>
    </filter>
  </defs>
  <g id="Group_31" data-name="Group 31" transform="translate(4.5 1.501)">
    <g id="Group_213" data-name="Group 213">
      <g transform="matrix(1, 0, 0, 1, -4.5, -1.5)" filter="url(#Path_402)">
        <g id="Path_402-2" data-name="Path 402" transform="translate(4.5 22.13)" fill="url(#linear-gradient)">
          <path d="M28.719,57.437a28.666,28.666,0,0,1-14.934-4.184c.421-.158.854-.33,1.286-.514a32.248,32.248,0,0,0,5.482-2.992,32.531,32.531,0,0,0,4.778-3.964,32.625,32.625,0,0,0,3.941-4.8,32.578,32.578,0,0,0,2.976-5.514,32.463,32.463,0,0,0,1.881-6.092,32.95,32.95,0,0,0,.655-6.542c0-.53-.013-1.06-.038-1.575H24.852c.038.541.056,1.079.056,1.6a22.824,22.824,0,0,1-.454,4.535,22.426,22.426,0,0,1-3.368,8.046,22.63,22.63,0,0,1-2.732,3.33,22.579,22.579,0,0,1-3.312,2.748,22.344,22.344,0,0,1-3.8,2.074A22.15,22.15,0,0,1,7.04,44.9c-.6.124-1.225.225-1.843.3A28.537,28.537,0,0,1,0,28.719V8.637A8.647,8.647,0,0,1,8.637,0H48.8a8.647,8.647,0,0,1,8.637,8.637V28.719A28.695,28.695,0,0,1,28.719,57.437ZM29.792,6.623A5.207,5.207,0,1,0,35,11.829,5.212,5.212,0,0,0,29.792,6.623Z" stroke="none"/>
          <path d="M 28.71857643127441 56.43715667724609 C 32.4609260559082 56.43715667724609 36.09084701538086 55.70440673828125 39.50748825073242 54.2592658996582 C 42.80805587768555 52.86321640014648 45.77249526977539 50.86444473266602 48.31847763061523 48.31847763061523 C 50.86444473266602 45.77249526977539 52.86321640014648 42.80805587768555 54.2592658996582 39.50748825073242 C 55.70440673828125 36.09084701538086 56.43715667724609 32.4609260559082 56.43715667724609 28.71857643127441 L 56.43715667724609 8.63737678527832 C 56.43715667724609 4.426116466522217 53.01104736328125 1.000006437301636 48.79977798461914 1.000006437301636 L 8.63737678527832 1.000006437301636 C 4.426116466522217 1.000006437301636 1.000006437301636 4.426116466522217 1.000006437301636 8.63737678527832 L 1.000006437301636 28.71857643127441 C 1.000006437301636 34.24853515625 2.614038228988647 39.56263732910156 5.674033164978027 44.12741470336914 C 6.065514087677002 44.06948471069336 6.455288887023926 44.000732421875 6.838566303253174 43.92193603515625 C 8.21147632598877 43.63931655883789 9.560776710510254 43.21796798706055 10.84924602508545 42.66947555541992 C 12.11667633056641 42.13035583496094 13.33820629119873 41.46372604370117 14.47997665405273 40.68805694580078 C 15.61029624938965 39.92029571533203 16.67502593994141 39.03683471679688 17.64461708068848 38.06221771240234 C 18.61000633239746 37.09183502197266 19.48846626281738 36.02105712890625 20.25575637817383 34.87937545776367 C 21.02612686157227 33.73381805419922 21.68964576721191 32.5050048828125 22.22760581970215 31.22769737243652 C 22.7731761932373 29.92987632751465 23.19232559204102 28.5719165802002 23.47332572937012 27.19197654724121 C 23.7615966796875 25.77321624755859 23.90776634216309 24.31442642211914 23.90776634216309 22.85612678527832 C 23.90776634216309 22.3539867401123 23.88971710205078 21.83931732177734 23.8541259765625 21.32642555236816 L 23.77992630004883 20.2571964263916 L 35.69921493530273 20.2571964263916 L 35.74535751342773 21.20876693725586 C 35.7711181640625 21.74006652832031 35.78417587280273 22.2863655090332 35.78417587280273 22.83248710632324 C 35.78417587280273 25.09944725036621 35.55708694458008 27.36741638183594 35.10905456542969 29.57411575317383 C 34.67091751098633 31.72414588928223 34.01854705810547 33.8370246887207 33.17003631591797 35.85414505004883 C 32.33620452880859 37.83580780029297 31.30402565002441 39.748046875 30.10207557678223 41.53788757324219 C 28.91260719299316 43.30855560302734 27.54582595825195 44.97414779663086 26.0399169921875 46.48816680908203 C 24.53615570068359 48.00094604492188 22.87923622131348 49.37573623657227 21.11502647399902 50.57446670532227 C 19.52103233337402 51.65708923339844 17.82823181152344 52.60304260253906 16.07485580444336 53.39148712158203 C 19.96969795227051 55.3892936706543 24.3009204864502 56.43715667724609 28.71857643127441 56.43715667724609 M 29.79211616516113 5.622506618499756 C 33.21492767333984 5.622506618499756 35.99958801269531 8.406766891479492 35.99958801269531 11.82909679412842 C 35.99958801269531 15.2519063949585 33.21492767333984 18.03656578063965 29.79211616516113 18.03656578063965 C 26.36978721618652 18.03656578063965 23.58552551269531 15.2519063949585 23.58552551269531 11.82909679412842 C 23.58552551269531 8.406766891479492 26.36978721618652 5.622506618499756 29.79211616516113 5.622506618499756 M 28.71857643127441 57.43715667724609 C 23.43588638305664 57.43715667724609 18.27176666259766 55.99044799804688 13.7844762802124 53.25344467163086 C 14.20541667938232 53.09564590454102 14.63812637329102 52.92325592041016 15.07075595855713 52.73930740356445 C 16.98311614990234 51.92584609985352 18.82767677307129 50.91916656494141 20.55317687988281 49.74722671508789 C 22.26446723937988 48.58445739746094 23.87186622619629 47.25075531005859 25.33069610595703 45.78317642211914 C 26.79196548461914 44.31403732299805 28.11800575256348 42.69809722900391 29.27198600769043 40.98025512695312 C 30.43804550170898 39.24386596679688 31.43941688537598 37.38870620727539 32.24830627441406 35.46630477905273 C 33.07134628295898 33.50974655151367 33.70416641235352 31.46013641357422 34.12919616699219 29.37443733215332 C 34.56380462646484 27.23380661010742 34.78417587280273 25.03276634216309 34.78417587280273 22.83248710632324 C 34.78417587280273 22.30239677429199 34.77150726318359 21.77238655090332 34.74652481079102 21.2571964263916 L 24.85172653198242 21.2571964263916 C 24.88923645019531 21.79770660400391 24.90776634216309 22.33601570129395 24.90776634216309 22.85612678527832 C 24.90776634216309 24.38118553161621 24.75485610961914 25.9069766998291 24.45330619812012 27.3910961151123 C 24.15912628173828 28.83572578430176 23.72045707702637 30.25691604614258 23.14946556091309 31.6152172088623 C 22.58626556396484 32.95245742797852 21.89187622070312 34.23842620849609 21.0855655670166 35.43741607666016 C 20.28301620483398 36.63156509399414 19.36384582519531 37.75197601318359 18.35354614257812 38.76749801635742 C 17.33904647827148 39.78726577758789 16.2248363494873 40.71174621582031 15.04185676574707 41.51527786254883 C 13.84660625457764 42.32727813720703 12.5676965713501 43.02521514892578 11.24067687988281 43.58968734741211 C 9.891356468200684 44.16407775878906 8.478106498718262 44.60539627075195 7.040196418762207 44.90139770507812 C 6.435366630554199 45.02573776245117 5.815296649932861 45.12618637084961 5.197206497192383 45.19993591308594 C 1.796846389770508 40.35616683959961 6.431274414353538e-06 34.65714645385742 6.431274414353538e-06 28.71857643127441 L 6.431274414353538e-06 8.63737678527832 C 6.431274414353538e-06 3.874706506729126 3.874706506729126 6.431274414353538e-06 8.63737678527832 6.431274414353538e-06 L 48.79977798461914 6.431274414353538e-06 C 53.56244659423828 6.431274414353538e-06 57.43715667724609 3.874706506729126 57.43715667724609 8.63737678527832 L 57.43715667724609 28.71857643127441 C 57.43715667724609 32.59548568725586 56.67782592773438 36.35647583007812 55.18026733398438 39.89704513549805 C 53.73379516601562 43.31682586669922 51.66306686401367 46.38809585571289 49.02558517456055 49.02558517456055 C 46.38809585571289 51.66306686401367 43.31682586669922 53.73379516601562 39.89704513549805 55.18026733398438 C 36.35647583007812 56.67782592773438 32.59548568725586 57.43715667724609 28.71857643127441 57.43715667724609 Z M 29.79211616516113 6.622506618499756 C 26.92119598388672 6.622506618499756 24.58552551269531 8.958176612854004 24.58552551269531 11.82909679412842 C 24.58552551269531 14.70050621032715 26.92119598388672 17.03656578063965 29.79211616516113 17.03656578063965 C 32.66352462768555 17.03656578063965 34.99958801269531 14.70050621032715 34.99958801269531 11.82909679412842 C 34.99958801269531 8.958176612854004 32.66352462768555 6.622506618499756 29.79211616516113 6.622506618499756 Z" stroke="none" fill="rgba(255,255,255,0.32)"/>
        </g>
      </g>
      <g transform="matrix(1, 0, 0, 1, -4.5, -1.5)" filter="url(#Path_451)">
        <g id="Path_451-2" data-name="Path 451" transform="translate(21.09 4.88) rotate(30)" fill="url(#linear-gradient-2)">
          <path d="M6.287,0C9.759,0,18.238,6.287,18.238,6.287S9.759,12.574,6.287,12.574A6.287,6.287,0,0,1,6.287,0Z" stroke="none"/>
          <path d="M 6.286890983581543 0.9999990463256836 C 3.37169075012207 0.9999990463256836 1.000001907348633 3.371688842773438 1.000001907348633 6.286888599395752 C 1.000001907348633 9.202088356018066 3.37169075012207 11.57377815246582 6.286890983581543 11.57377815246582 C 6.990671157836914 11.57377815246582 8.802350997924805 11.18560886383057 13.02847099304199 8.585908889770508 C 14.40580463409424 7.738637447357178 15.66498947143555 6.883955001831055 16.51863861083984 6.286831378936768 C 15.66806221008301 5.69182825088501 14.41437149047852 4.840855121612549 13.04017066955566 3.995068550109863 C 8.806111335754395 1.389108657836914 6.991631507873535 0.9999990463256836 6.286890983581543 0.9999990463256836 M 6.286890983581543 -9.5367431640625e-07 C 9.759040832519531 -9.5367431640625e-07 18.23764038085938 6.286888599395752 18.23764038085938 6.286888599395752 C 18.23764038085938 6.286888599395752 9.759040832519531 12.57377815246582 6.286890983581543 12.57377815246582 C 2.814741134643555 12.57377815246582 1.9073486328125e-06 9.759038925170898 1.9073486328125e-06 6.286888599395752 C 1.9073486328125e-06 2.814738273620605 2.814741134643555 -9.5367431640625e-07 6.286890983581543 -9.5367431640625e-07 Z" stroke="none" fill="rgba(255,255,255,0.3)"/>
        </g>
      </g>
      <g transform="matrix(1, 0, 0, 1, -4.5, -1.5)" filter="url(#Path_452)">
        <g id="Path_452-2" data-name="Path 452" transform="translate(58.45 14.96) rotate(150)" fill="url(#linear-gradient-3)">
          <path d="M7.772,15.544c4.292,0,14.774-7.772,14.774-7.772S12.064,0,7.772,0a7.772,7.772,0,1,0,0,15.544Z" stroke="none"/>
          <path d="M 7.772097587585449 15.54411888122559 L 7.772097587585449 14.54411888122559 C 8.667447090148926 14.54411888122559 10.95722770690918 14.05947875976562 16.23300743103027 10.81369876861572 C 18.09413909912109 9.668691635131836 19.78074073791504 8.51313591003418 20.83193969726562 7.772104740142822 C 19.78069305419922 7.031067371368408 18.0939884185791 5.875473499298096 16.23280715942383 4.730448722839355 C 10.9568977355957 1.484648466110229 8.667287826538086 0.9999985098838806 7.772037506103516 0.9999985098838806 C 4.037927627563477 0.9999985098838806 0.9999973773956299 4.037928581237793 0.9999973773956299 7.772048473358154 C 1.000007390975952 11.50616836547852 4.037957191467285 14.54410839080811 7.772087574005127 14.54411888122559 L 7.772097587585449 15.54411888122559 M 7.772087574005127 15.54411888122559 C 3.479697465896606 15.54410839080811 7.392883162538055e-06 12.06443881988525 -2.607116812214372e-06 7.772048473358154 C -2.607116812214372e-06 3.479658603668213 3.47966742515564 -1.151306150859455e-05 7.77205753326416 -1.513061533842119e-06 C 12.06445693969727 8.486938895657659e-06 22.54602813720703 7.772088527679443 22.54602813720703 7.772088527679443 C 22.54602813720703 7.772088527679443 12.06448745727539 15.54412841796875 7.772087574005127 15.54411888122559 Z" stroke="none" fill="rgba(255,255,255,0.3)"/>
        </g>
      </g>
    </g>
  </g>
</svg>
