<svg xmlns="http://www.w3.org/2000/svg" width="34.489" height="27.438" viewBox="0 0 34.489 27.438">
  <path id="Path_408" data-name="Path 408" d="M-5300.439-13263.979a10.947,10.947,0,0,1-4.092-4.053,10.877,10.877,0,0,1-1.091-8.308,10.89,10.89,0,0,1,5.1-6.651,10.916,10.916,0,0,1,5.453-1.461,10.992,10.992,0,0,1,8.348,3.839l8.045-4.649-3.028-.811a2,2,0,0,1-1.414-1.364,2.009,2.009,0,0,1,.447-1.924,2.005,2.005,0,0,1,1.414-.638h.06a1.978,1.978,0,0,1,.524.07l7.685,2.058a.189.189,0,0,1,.043.014l.04.01.06.021c.037.014.077.03.113.047a.763.763,0,0,1,.073.029l.117.061c.02.014.043.023.063.036a1.425,1.425,0,0,1,.12.08h0l.04.03a.861.861,0,0,1,.083.067.494.494,0,0,1,.067.057,1.506,1.506,0,0,1,.11.106.256.256,0,0,1,.03.033c.023.023.047.054.07.08s.04.05.06.077a1.321,1.321,0,0,1,.08.116l0,0a.724.724,0,0,1,.037.063c.017.03.034.061.047.091s.027.05.04.076c.02.05.043.1.06.153.006.017.01.03.017.047s.017.057.027.083a.883.883,0,0,1,.023.091c.014.057.023.113.034.17,0,.014,0,.026,0,.04,0,.033.01.07.013.1s0,.053,0,.083v.014c0,.063,0,.123-.007.184s-.007.1-.013.143c0,.027-.01.054-.014.077s-.017.077-.023.113c0,0,0,0,0,.007a.061.061,0,0,1-.007.023c-.01.04-.02.083-.033.123l-2.028,7.581a2,2,0,0,1-1.928,1.481,2.108,2.108,0,0,1-.517-.066,1.992,1.992,0,0,1-1.211-.931,1.972,1.972,0,0,1-.2-1.515l.811-3.035-8.045,4.643a10.942,10.942,0,0,1,.1,6.981,10.908,10.908,0,0,1-4.95,6.153,10.933,10.933,0,0,1-5.457,1.465A11.049,11.049,0,0,1-5300.439-13263.979Zm1.908-15.553a6.915,6.915,0,0,0-3.249,4.223,6.917,6.917,0,0,0,.7,5.279,6.973,6.973,0,0,0,2.6,2.585,6.971,6.971,0,0,0,3.429.9,6.975,6.975,0,0,0,3.482-.937,6.929,6.929,0,0,0,3.249-4.226,6.909,6.909,0,0,0-.7-5.283,6.944,6.944,0,0,0-5.543-3.466c-.16-.013-.323-.02-.483-.02A6.989,6.989,0,0,0-5298.532-13279.532Z" transform="translate(5306.001 13289.999)" fill="#fff"/>
</svg>
