<svg xmlns="http://www.w3.org/2000/svg" width="20.663" height="20.847" viewBox="0 0 20.663 20.847">
  <path id="Path_446" data-name="Path 446" d="M-10329.559-13269.589a2.682,2.682,0,0,1-.04-2.795.968.968,0,0,0,.1-.407h-.474a1,1,0,0,1-.867-.5,1.011,1.011,0,0,1,0-1l.544-.94a4.178,4.178,0,0,1-1.4-.927l-2.938-2.938a4.643,4.643,0,0,1-1.368-3.3,4.642,4.642,0,0,1,1.368-3.3,4.637,4.637,0,0,1,3.3-1.368c.1,0,.209,0,.313.011a5.2,5.2,0,0,1,1.011-1.432,5.163,5.163,0,0,1,6.578-.594,5.135,5.135,0,0,1,2.935-.913,5.122,5.122,0,0,1,3.646,1.507,5.135,5.135,0,0,1,1.507,3.643,5.122,5.122,0,0,1-1.507,3.643l-3.322,3.322a4.585,4.585,0,0,1-1.686,1.073l.691,1.2a1,1,0,0,1,0,1,.993.993,0,0,1-.864.5h-.066a3.527,3.527,0,0,1-.467,2.084,1.952,1.952,0,0,0,.013,1.775l-.006-.007-1.748.971a3.944,3.944,0,0,1,.01-3.739,1.541,1.541,0,0,0,.183-1.084h-.716a.994.994,0,0,1-.867-.5.99.99,0,0,1,0-1l.691-1.2-.088-.032-.684.685a4.213,4.213,0,0,1-1.4.928l.541.939a.992.992,0,0,1,0,1,.992.992,0,0,1-.863.5h0a3.016,3.016,0,0,1-.369,1.408.693.693,0,0,0-.04.674,1,1,0,0,1-.268,1.387.988.988,0,0,1-.56.171A1,1,0,0,1-10329.559-13269.589Zm-3.659-14.7a2.651,2.651,0,0,0-.781,1.888,2.649,2.649,0,0,0,.781,1.888l2.935,2.938a2.176,2.176,0,0,0,1.552.641,2.172,2.172,0,0,0,1.547-.641l2.938-2.938a2.649,2.649,0,0,0,.781-1.888,2.651,2.651,0,0,0-.781-1.888,2.666,2.666,0,0,0-1.891-.784,2.652,2.652,0,0,0-1.888.784,1,1,0,0,1-1.414,0,2.7,2.7,0,0,0-1.187-.69,2.818,2.818,0,0,0-.7-.094A2.659,2.659,0,0,0-10333.218-13284.288Zm10.387-1.414a4.645,4.645,0,0,1,1.367,3.3,4.646,4.646,0,0,1-1.367,3.3l-.563.563a2.579,2.579,0,0,0,1.813-.763l3.322-3.322a3.129,3.129,0,0,0,.921-2.229,3.132,3.132,0,0,0-.921-2.228,3.144,3.144,0,0,0-2.231-.924,3.142,3.142,0,0,0-2.228.924,1,1,0,0,1-1.414,0,3.15,3.15,0,0,0-4.457,0,3.085,3.085,0,0,0-.468.595q.166.092.325.2a4.615,4.615,0,0,1,2.595-.788A4.644,4.644,0,0,1-10322.831-13285.7Z" transform="translate(10336 13289.998)" fill="#fff"/>
</svg>
