<svg xmlns="http://www.w3.org/2000/svg" width="21.299" height="21.299" viewBox="0 0 21.299 21.299">
  <path id="Path_268" data-name="Path 268" d="M19.361,21.5a7.475,7.475,0,0,0-6.111-10.461V8H15.5a5.256,5.256,0,0,0,5.25-5.25A.75.75,0,0,0,20,2H17a5.253,5.253,0,0,0-4.924,3.45A5.24,5.24,0,0,0,8,3.5H5a.75.75,0,0,0-.75.75A5.256,5.256,0,0,0,9.5,9.5h2.25v1.538A7.475,7.475,0,0,0,5.638,21.5H2V23H23V21.5ZM17,3.5h2.175a3.756,3.756,0,0,1-3.675,3H13.324A3.757,3.757,0,0,1,17,3.5ZM9.5,8A3.757,3.757,0,0,1,5.825,5H8a3.757,3.757,0,0,1,3.675,3Zm-3,10.5a6,6,0,1,1,11.178,3H14.164a2.24,2.24,0,0,0-1.665-3.75.75.75,0,1,1,.75-.75h1.5a2.25,2.25,0,0,0-1.5-2.112V14h-1.5v.888a2.245,2.245,0,0,0,.75,4.362.75.75,0,1,1-.75.75h-1.5a2.233,2.233,0,0,0,.585,1.5H7.321A5.962,5.962,0,0,1,6.5,18.5Z" transform="translate(-1.85 -1.85)" fill="#fff" stroke="#fff" stroke-width="0.3"/>
</svg>
