<svg xmlns="http://www.w3.org/2000/svg" width="43.391" height="37.568" viewBox="0 0 43.391 37.568">
  <path id="nonbinary_-_Outline" data-name="nonbinary - Outline" d="M15.339,15.088a10.84,10.84,0,0,1-2-21.493v-3.963L11.45-8.479a2,2,0,0,1-2.828,0,2,2,0,0,1,0-2.828L12.511-15.2,8.621-19.086a2,2,0,0,1,0-2.828,2,2,0,0,1,2.828,0l3.889,3.889,3.889-3.889a2,2,0,0,1,2.828,0,2,2,0,0,1,0,2.828L18.167-15.2l3.889,3.889a2,2,0,0,1,0,2.828,2,2,0,0,1-2.828,0l-1.889-1.889V-6.4a10.84,10.84,0,0,1-2,21.493Zm0-17.678a6.839,6.839,0,1,0,6.839,6.839A6.847,6.847,0,0,0,15.339-2.59Z" transform="translate(10.817 7.353) rotate(60)" fill="#faae1d"/>
</svg>
