<svg xmlns="http://www.w3.org/2000/svg" width="19.998" height="19.999" viewBox="0 0 19.998 19.999">
  <path id="Path_445" data-name="Path 445" d="M-10332-13270a4.01,4.01,0,0,1-4-4v-10a4.01,4.01,0,0,1,4-4v-1a.944.944,0,0,1,1-1,.943.943,0,0,1,1,1v1h8v-1a.945.945,0,0,1,1-1,.945.945,0,0,1,1,1v1a4.013,4.013,0,0,1,4,4v10a4.012,4.012,0,0,1-4,4Zm-2-14v10a2.007,2.007,0,0,0,2,2h12a2.006,2.006,0,0,0,2-2v-10a2.005,2.005,0,0,0-2-2,.945.945,0,0,1-1,1,.945.945,0,0,1-1-1h-8a.944.944,0,0,1-1,1,.945.945,0,0,1-1-1A2.007,2.007,0,0,0-10334-13284Zm5.5,8.4a.956.956,0,0,1-.3-1.2l.7-1.5-1.4-.8a1.153,1.153,0,0,1-.5-1.2,1.083,1.083,0,0,1,1.1-.7l1.6.2.3-1.6a.975.975,0,0,1,1-.8.975.975,0,0,1,1,.8l.3,1.6,1.6-.2a1.127,1.127,0,0,1,1.1.7,1.084,1.084,0,0,1-.5,1.2l-1.4.8.7,1.5a.955.955,0,0,1-.3,1.2,1.432,1.432,0,0,1-.6.2.905.905,0,0,1-.7-.3l-1.2-1.1-1.2,1.1a.979.979,0,0,1-.7.314A1.011,1.011,0,0,1-10328.5-13275.6Z" transform="translate(10335.998 13289.999)" fill="#fff"/>
</svg>
